<?xml version="1.0" encoding="UTF-8"?>
<svg version="1.1" xmlns="http://www.w3.org/2000/svg" width="256" height="256">
<path d="M0 0 C2.91559568 0.32527481 3.86026077 0.83682134 5.80117798 3.103302 C6.43220428 4.00781097 7.06323059 4.91231995 7.71337891 5.84423828 C14.54759383 14.67319642 21.44731117 22.77626527 32.97478867 24.6255455 C43.77790087 25.82829695 54.68425714 25.40610181 65.52270508 24.97418213 C70.32259116 24.80727691 75.12350864 24.76906118 79.92578125 24.71875 C89.28904235 24.60230959 98.64265208 24.34739601 108 24 C108 22.68 108 21.36 108 20 C111.8826895 21.58411906 114.51864365 24.22865638 117.421875 27.15625 C117.92672424 27.65918579 118.43157349 28.16212158 118.95172119 28.68029785 C120.01307997 29.74029986 121.07193419 30.80281488 122.12841797 31.86767578 C123.75139124 33.50140046 125.38481068 35.12413294 127.01953125 36.74609375 C128.05012146 37.77800476 129.08009152 38.81053559 130.109375 39.84375 C130.84519806 40.57350037 130.84519806 40.57350037 131.59588623 41.31799316 C135 44.77005651 135 44.77005651 135 47 C133.35 47 131.7 47 130 47 C130.03330917 47.80607193 130.06661835 48.61214386 130.10093689 49.44264221 C130.40368659 57.10458511 130.63090956 64.76356464 130.77718258 72.42996311 C130.85492656 76.37024488 130.9599748 80.30552087 131.1315918 84.24291992 C131.29671561 88.05597866 131.38466891 91.86428529 131.42315865 95.6806469 C131.45051283 97.12316686 131.50393536 98.56547602 131.58595085 100.00592232 C132.03213857 108.18070671 130.78725354 113.9761031 125.59441662 120.38587093 C119.5764291 126.87807855 114.05611188 130.24400204 105.14306641 130.71875 C101.45330622 130.78037251 97.78787207 130.65014761 94.1015625 130.5 C92.1300677 130.47449634 90.15847798 130.45557127 88.18685913 130.44287109 C83.04535793 130.39174348 77.91035767 130.24974568 72.77130127 130.08825684 C67.51243045 129.94074035 62.25259766 129.88595988 56.9921875 129.8203125 C49.34198673 129.70956401 41.6933242 129.5711862 34.04541016 129.3515625 C33.24035538 129.3315921 32.4353006 129.3116217 31.60585022 129.29104614 C26.11738726 129.11738726 26.11738726 129.11738726 25 128 C24.90618698 126.15881971 24.88256046 124.31402359 24.88647461 122.47045898 C24.88659546 121.27271851 24.88671631 120.07497803 24.88684082 118.84094238 C24.89195679 117.57214233 24.89707275 116.30334229 24.90234375 114.99609375 C24.90335083 113.83726685 24.90435791 112.67843994 24.90539551 111.48449707 C24.91064673 107.13548805 24.92460784 102.78649308 24.9375 98.4375 C24.958125 88.723125 24.97875 79.00875 25 69 C-7.67 68.505 -7.67 68.505 -41 68 C-41 81.86 -41 95.72 -41 110 C-48.26 110 -55.52 110 -63 110 C-63 81.95 -63 53.9 -63 25 C-54.585 24.505 -54.585 24.505 -46 24 C-47.84078125 22.19402344 -47.84078125 22.19402344 -49.71875 20.3515625 C-51.31276042 18.77630514 -52.90649631 17.20076995 -54.5 15.625 C-55.31082031 14.8309375 -56.12164062 14.036875 -56.95703125 13.21875 C-57.72402344 12.45820312 -58.49101563 11.69765625 -59.28125 10.9140625 C-60.34956055 9.8614624 -60.34956055 9.8614624 -61.43945312 8.78759766 C-63 7 -63 7 -63 5 C-41.88 5 -20.76 5 1 5 C0.505 2.525 0.505 2.525 0 0 Z M-41 27 C-41 33.27 -41 39.54 -41 46 C-32.5751571 46.02279639 -24.1503391 46.04105483 -15.7254734 46.05181217 C-11.81143655 46.05698098 -7.89742229 46.06396623 -3.98339844 46.07543945 C20.02690989 46.19652605 20.02690989 46.19652605 44 45 C42.68854771 43.40499045 41.36306793 41.82066638 39.99507141 40.27388 C38.55077734 38.62774774 37.15624445 36.93751441 35.7943573 35.22257996 C30.78488221 29.44194656 27.47756136 26.32978316 19.5090332 25.7512207 C16.6829881 25.71353611 13.87415836 25.81143341 11.05078125 25.92578125 C9.5419843 25.94634589 8.03311295 25.96198116 6.5242157 25.97294617 C2.58816991 26.01457788 -1.34327608 26.12226786 -5.27752686 26.24468994 C-9.30612973 26.35804382 -13.33549013 26.40762887 -17.36523438 26.46289062 C-25.24581696 26.58020886 -33.12180319 26.77335087 -41 27 Z M48 47 C48 66.8 48 86.6 48 107 C60.065625 107.309375 60.065625 107.309375 72.375 107.625 C74.89431152 107.71604004 77.41362305 107.80708008 80.00927734 107.90087891 C92.99146834 108.47204872 92.99146834 108.47204872 104.5625 103.5625 C111.14960065 94.79784542 108.99721995 81.67528134 108.625 71.375 C108.315625 59.309375 108.315625 59.309375 108 47 C88.2 47 68.4 47 48 47 Z " fill="#3AAFA9" transform="translate(92,63)"/>
</svg>
